<?xml version="1.0" encoding="UTF-8" standalone="no"?>
<svg
   xmlns:dc="http://purl.org/dc/elements/1.1/"
   xmlns:cc="http://creativecommons.org/ns#"
   xmlns:rdf="http://www.w3.org/1999/02/22-rdf-syntax-ns#"
   xmlns:svg="http://www.w3.org/2000/svg"
   xmlns="http://www.w3.org/2000/svg"
   viewBox="0 0 253.2 283.98666"
   height="283.98666"
   width="253.2"
   xml:space="preserve"
   id="svg2"
   version="1.1"><metadata
     id="metadata8"><rdf:RDF><cc:Work
         rdf:about=""><dc:format>image/svg+xml</dc:format><dc:type
           rdf:resource="http://purl.org/dc/dcmitype/StillImage" /></cc:Work></rdf:RDF></metadata><defs
     id="defs6" /><g
     transform="matrix(1.3333333,0,0,-1.3333333,0,283.98667)"
     id="g10"><g
       transform="scale(0.1)"
       id="g12">
        <style>
        @media (prefers-color-scheme: dark) {
            #path16 {
                fill: #A2D1D1!important;
                fill-opacity: 0.7!important;
            }
            }
        </style>
        <path
         id="path14"
         style="fill:#ca6b7a;fill-opacity:1;fill-rule:nonzero;stroke:none"
         d="m 1562.91,902.91 -0.05,-129.832 C 1562.7,353.219 1257.41,137.531 955.582,137.641 641.957,137.762 348.656,387.422 348.809,787.02 l 0.043,116.351 1214.058,-0.461" /><path
         id="path16"
         style="fill:#3b2122;fill-opacity:1;fill-rule:nonzero;stroke:none"
         d="m 367.223,1499.67 c -9.192,325.11 438.824,315.63 456.293,-0.18 -0.047,-160.71 -125.215,-233.75 -201.231,-233.72 -103.097,0.04 -249.297,29.62 -255.062,233.9 z m 1127.027,-3.69 c -0.05,-125.82 -96.21,-216.66 -216.79,-216.61 -138.08,0.04 -206.21,103.18 -206.16,216.77 0.05,127.59 82.24,223.68 206.33,223.64 139.81,-0.06 216.66,-96.22 216.62,-223.8 z M 922.891,1257.09 c 55.07,-177.67 228.639,-215.37 350.959,-218.91 85.66,-3.52 174.8,27.9 248.23,89.04 l 131.03,-110.16 139.88,181.71 -122.3,94.42 c 38.48,55.92 47.24,141.55 47.26,202.72 0.1,241.18 -146.63,466.68 -440.24,466.8 -150.62,0.05 -275.63,-70.12 -356.112,-174.69 -37.258,95.9 -173.231,204.18 -329.473,204.23 -143.172,0.05 -434.676,-92.4 -434.824,-489.87 -0.078,-222.25 72.164,-490.06 450.586,-490.2 153.601,-0.06 294.535,122.39 315.004,244.91" /><path
         id="path18"
         style="fill:#3b2122;fill-opacity:1;fill-rule:nonzero;stroke:none"
         d="m 828.516,1499.49 v 0.17 c 0.007,69.78 -21.051,131.39 -61.633,175.6 -40.563,44.22 -100.563,70.68 -177.078,70.67 v -10 c 74.258,-0.06 131.113,-25.44 169.711,-67.44 38.582,-42.01 58.992,-101.01 59,-168.83 v -0.17 h 10" /><path
         id="path20"
         style="fill:#3b2122;fill-opacity:1;fill-rule:nonzero;stroke:none"
         d="m 589.617,1260.78 h 0.09 c 66.285,-0.01 126.027,25 169.16,67.4 43.145,42.39 69.637,102.18 69.649,171.31 l -10,0.01 c -0.039,-66.58 -25.422,-123.64 -66.661,-164.19 -41.246,-40.53 -98.382,-64.52 -162.148,-64.53 h -0.09 v -10" /><path
         id="path22"
         style="fill:#3b2122;fill-opacity:1;fill-rule:nonzero;stroke:none"
         d="m 362.223,1499.69 v -0.13 c 0.004,-62.21 18.648,-121.82 56.558,-166.04 37.883,-44.25 95.141,-72.76 170.836,-72.74 l 0.004,10 c -73.215,0.08 -127.16,27.23 -163.246,69.25 -36.062,42.03 -54.156,99.28 -54.152,159.53 v 0.09 l -10,0.04" /><path
         id="path24"
         style="fill:#3b2122;fill-opacity:1;fill-rule:nonzero;stroke:none"
         d="m 589.809,1745.93 h -0.11 c -68.203,0.03 -125.324,-26.51 -165.113,-70.66 -39.816,-44.14 -62.344,-105.71 -62.363,-175.6 h 10 c 0.027,67.76 21.832,126.82 59.789,168.9 37.98,42.06 92.074,67.33 157.687,67.36 h 0.102 l 0.008,10" /></g></g></svg>